# xmcd CD database file
#
# Track frame offsets:
#	150
#	18699
#	31249
#	53678
#
# Disc length: 961 seconds
#
# Revision: 0
# Processed by: cddbd v1.5.1PL2 Copyright (c) Steve Scherf et al.
# Submitted via: CDex 1.51
#
DISCID=2903bf04
DTITLE=Middler Mark - Middler Mark
DYEAR=1900
DGENRE=Country
TTITLE0=Fix this Day
TTITLE1=Boat load of blues
TTITLE2=Lazy River
TTITLE3=Mustang Sally
EXTD=
EXTT0=
EXTT1=
EXTT2=
EXTT3=
PLAYORDER=
